<?xml version="1.0" encoding="UTF-8"?>
<svg width="288px" height="104px" viewBox="0 0 288 104" version="1.1" xmlns="http://www.w3.org/2000/svg" xmlns:xlink="http://www.w3.org/1999/xlink">
    <!-- Generator: Sketch 59.1 (86144) - https://sketch.com -->
    <title>RGB Color Logotype Whitespace@1x</title>
    <desc>Created with Sketch.</desc>
    <g id="RGB-Color-Logotype-Whitespace" stroke="none" stroke-width="1" fill="none" fill-rule="evenodd">
        <g id="PARSIQ-Logo" transform="translate(26.000000, 26.000000)" fill="#005CC7">
            <path d="M12.4773975,27.5023706 L12.4774282,35.0143706 L10.9754282,35.0147562 L10.9754282,41.0246026 L16.9852632,41.0246026 L16.9844282,39.5213706 L24.4973975,39.5213706 L24.4972019,52.0000178 C11.3110965,51.2497893 0.750541737,40.6893739 6.2838694e-05,27.5033107 L12.4773975,27.5023706 Z M39.521,27.502 L51.9999848,27.5030209 C51.2496441,40.6892192 40.6890313,51.2497838 27.5028293,52.0000178 L27.5023975,39.5213706 L35.0144282,39.5213706 L35.014768,41.0246026 L41.0246029,41.0246026 L41.0246029,35.0147562 L39.5214282,35.0143706 L39.521,27.502 Z M218.249328,10.5289826 C222.305922,10.5289826 225.883291,11.9640049 228.52078,14.5670272 L228.790252,14.8404609 L228.790252,11.1202 L233.950325,11.1202 L233.95205,51.7446348 L228.790252,51.7288087 L228.790252,36.6584174 C226.129436,39.4342 222.445804,40.9698957 218.249328,40.9698957 C209.628699,40.9698957 202.876045,34.2845043 202.876045,25.7497217 C202.876045,17.2149391 209.628699,10.5289826 218.249328,10.5289826 Z M86.4827204,10.5290957 C95.1033494,10.5290957 101.856003,17.214487 101.856003,25.7498348 C101.856003,34.2846174 95.1033494,40.9700087 86.4827204,40.9700087 C82.4255705,40.9700087 78.8492577,39.5355146 76.2118398,36.9325275 L75.9423715,36.6590957 L75.9423715,51.7362696 L70.7822978,51.7362696 L70.7822978,11.1197478 L75.9423715,11.1197478 L75.9423715,14.8400087 C78.6031872,12.0642261 82.2856688,10.5290957 86.4827204,10.5290957 Z M173.723037,10.528587 C178.410445,10.528587 182.229564,12.6990034 184.003346,16.3498677 L184.126551,16.6131522 L184.569829,17.5977609 L180.116354,20.0999783 L179.596035,18.8327609 C178.737077,16.742587 176.541386,15.494587 173.723037,15.494587 C171.061647,15.494587 168.375534,16.6877609 168.375534,19.3538913 C168.375534,21.633413 170.809824,22.3619783 174.782074,23.3618478 C179.307991,24.5013261 184.940664,25.9194565 184.940664,32.1453261 C184.940664,37.3408043 180.418197,40.9700652 173.941514,40.9700652 C168.454569,40.9700652 164.211731,38.5564084 162.524964,34.4974523 L162.418595,34.230413 L162.058684,33.2870652 L166.5846,30.6995 L167.056625,32.0905 C167.887411,34.5418478 170.461411,36.0051957 173.941514,36.0051957 C176.764462,36.0051957 179.78059,34.9911957 179.78059,32.1453261 C179.78059,29.7895 177.308929,29.040587 173.27516,28.013587 C168.793514,26.872413 163.21546,25.452587 163.21546,19.3538913 C163.21546,14.2403696 167.634438,10.528587 173.723037,10.528587 Z M121.802634,10.5289826 C125.829772,10.5289826 129.408846,11.9455191 132.07089,14.5136122 L132.342983,14.7833739 L132.342983,11.1202 L137.558251,11.1202 L137.558251,40.3792435 L132.342983,40.3792435 L132.342983,36.7155043 C129.655145,39.4539826 125.968639,40.9698957 121.802634,40.9698957 C113.182005,40.9698957 106.429352,34.2845043 106.429352,25.7497217 C106.429352,17.2149391 113.182005,10.5289826 121.802634,10.5289826 Z M159.054974,10.7437652 L159.054974,15.7092 L157.754558,15.7096476 C155.832043,15.7292399 150.104853,16.4234263 149.929087,23.8901278 L149.92495,24.245113 L149.92495,40.3792435 L144.764876,40.3792435 L144.764876,11.1202 L149.92495,11.1202 L149.92495,13.660287 C151.802653,11.8170452 154.345865,10.8249612 157.450817,10.7485436 L157.841854,10.7437652 L159.054974,10.7437652 Z M196.364521,11.1197478 L196.364521,40.3787913 L191.204447,40.3787913 L191.204447,11.1197478 L196.364521,11.1197478 Z M24.4973316,-5.20131735e-05 L24.497,12.477 L35.0147373,12.4773706 L35.014768,10.9753706 L41.0246029,10.9753706 L41.0246029,16.985217 L35.014768,16.985217 L35.0147373,15.4823706 L24.497,15.482 L24.4975569,27.5024482 L36.516,27.502 L36.5164282,35.0143706 L35.014768,35.0147562 L35.0144282,36.5163706 L16.9844282,36.5163706 L16.9852632,35.0147562 L15.4824282,35.0143706 L15.4824282,16.9843706 L16.9852632,16.985217 L16.9852632,10.9753706 L10.9754282,10.9753706 L10.9754282,16.985217 L12.4774282,16.9843706 L12.4773975,24.4973706 L5.88583473e-06,24.4976635 C0.750009736,11.3110905 11.310832,0.750133704 24.4973316,-5.20131735e-05 Z M86.3188629,15.4945304 C80.5004845,15.4945304 75.9423715,19.999313 75.9423715,25.7498348 C75.9423715,31.5003565 80.5004845,36.0051391 86.3188629,36.0051391 C92.1378162,36.0051391 96.6959292,31.5003565 96.6959292,25.7498348 C96.6959292,19.999313 92.1378162,15.4945304 86.3188629,15.4945304 Z M122.021111,15.4944174 C116.202158,15.4944174 111.644045,19.9992 111.644045,25.7497217 C111.644045,31.5008087 116.202158,36.0050261 122.021111,36.0050261 C127.809018,36.0050261 132.342983,31.5008087 132.342983,25.7497217 C132.342983,19.9992 127.809018,15.4944174 122.021111,15.4944174 Z M218.413185,15.4944174 C212.594232,15.4944174 208.036119,19.9992 208.036119,25.7497217 C208.036119,31.5008087 212.594232,36.0050261 218.413185,36.0050261 C224.232139,36.0050261 228.790252,31.5008087 228.790252,25.7497217 C228.790252,19.9992 224.232139,15.4944174 218.413185,15.4944174 Z M190.200892,0.36693913 L197.367501,0.387852174 L197.367501,7.27785217 L190.200892,7.27785217 L190.200892,0.36693913 Z" id="Combined-Shape"></path>
        </g>
    </g>
</svg>
